<svg width="24" height="24" viewBox="0 0 24 24" fill="none" xmlns="http://www.w3.org/2000/svg">
<path d="M24.0004 0.666697C24.0004 0.298192 23.7022 0 23.3337 0H21.3336C20.9651 0 20.6669 0.298192 20.6669 0.666697C20.6669 2.12766 19.9729 3.13286 19.4156 3.94018C19.3434 4.04418 19.2963 4.12787 19.2317 4.2245C18.7009 4.08412 18.1543 4.00006 17.5966 4.00006H17.0706C15.8023 4.00006 14.5744 4.37181 13.5184 5.07626L13.3557 5.18433C11.7489 6.25465 10.758 8.00662 10.6395 9.98971C10.3986 13.9741 9.22538 15.8277 2.75004 18.9521C1.07945 19.7568 0 21.4769 0 23.3337C0 23.7022 0.298192 24.0004 0.666697 24.0004C1.56252 24.0004 22.6123 23.8617 23.9496 11.8087C23.9965 11.3849 24.0004 10.4057 24.0004 10.4038C24.0004 8.831 23.4233 7.34473 22.415 6.19259C23.9623 3.4968 24.0004 0.786824 24.0004 0.666697ZM20.5121 4.69801C21.0316 3.94537 21.7842 2.85617 21.9613 1.33339H22.6189C22.5241 2.18353 22.2435 3.72799 21.4157 5.27845C21.3259 5.21164 21.2426 5.13814 21.1488 5.07564C20.9417 4.93763 20.7231 4.82313 20.5037 4.71088C20.5069 4.70613 20.5087 4.70269 20.5121 4.69801ZM22.667 10.4018C22.667 10.407 22.6657 11.2834 22.624 11.6623C21.5485 21.3545 5.10295 22.5114 1.40108 22.6488C1.61596 21.5752 2.3256 20.6364 3.32817 20.1526C10.4533 16.7157 11.7111 14.3654 11.9702 10.0698C12.064 8.50725 12.8388 7.13092 14.0953 6.29303L14.258 6.18497C15.094 5.62765 16.0667 5.33339 17.0706 5.33339H17.5966C18.6006 5.33339 19.5732 5.62765 20.4092 6.18497C21.8233 7.12704 22.667 8.70457 22.667 10.4018Z" fill="black"/>
<path d="M14.8326 7.40352C13.9277 8.00771 13.3691 9.00835 13.3001 10.1497C13.2779 10.5169 13.5579 10.8326 13.9251 10.8548C13.9394 10.8554 13.9524 10.8561 13.9654 10.8561C14.3157 10.8561 14.61 10.5833 14.6308 10.2291C14.6738 9.50842 15.0176 8.88273 15.5723 8.51297C15.8783 8.30853 15.9616 7.89446 15.7572 7.58846C15.5514 7.28052 15.1361 7.19914 14.8326 7.40352Z" fill="black"/>
</svg>
